<svg width="301" height="62" viewBox="0 0 301 62" fill="none" xmlns="http://www.w3.org/2000/svg">
<g clip-path="url(#clip0_1_379)">
<path fill-rule="evenodd" clip-rule="evenodd" d="M268.277 1.73096C268.277 1.73096 288.962 2.08953 299.661 0.85083V7.85924C299.661 7.85924 298.656 3.91497 290.648 4.7951L277.387 6.29457V23.6689H298.397V27.5154H277.29V47.3019L287.179 48.2473C289.059 48.3776 296.549 49.486 300.115 44.0096L299.499 47.8561C299.499 47.8561 299.402 51.2462 295.025 51.2462H267.272C267.272 51.2462 269.768 49.3556 269.768 44.14V15.65C269.736 15.65 269.963 8.18521 268.277 1.73096Z" fill="black"/>
<path fill-rule="evenodd" clip-rule="evenodd" d="M220.163 1.27454H230.473V39.1852C230.473 39.1852 230.375 49.4207 242.112 49.4207C253.849 49.4207 256.021 39.4459 256.021 33.3177V9.52165C256.021 9.52165 256.378 3.81713 252.876 1.24194H261.273C261.273 1.24194 260.495 4.40388 260.495 8.54373V37.3923C260.495 37.3923 262.149 52.9086 241.464 52.9086C220.811 52.9086 221.913 41.0758 221.913 37.0989V9.71723C221.913 9.71723 222.075 5.3818 220.163 1.27454Z" fill="black"/>
<path fill-rule="evenodd" clip-rule="evenodd" d="M98.094 0.948486H108.307L134.471 36.3817L136.676 7.53313C136.676 7.53313 137.584 3.45848 133.531 1.07888H140.275V50.6919H134.925L106.102 12.4553L104.222 42.4122C104.222 42.4122 103.249 47.7908 106.751 50.6919H100.104V7.85911C100.104 7.85911 100.039 4.46899 98.094 0.948486Z" fill="black"/>
<path fill-rule="evenodd" clip-rule="evenodd" d="M149.58 1.20923H160.214C160.214 1.20923 158.723 8.86959 158.723 18.5836V42.7056C158.723 42.7056 158.626 49.5184 159.242 51.0505H150.358C150.358 51.0505 151.007 46.3564 151.007 41.2387V20.8002C151.007 20.8002 151.655 9.16296 149.58 1.20923Z" fill="black"/>
<path fill-rule="evenodd" clip-rule="evenodd" d="M81.2021 1.20923H91.8365C91.8365 1.20923 90.3451 8.86959 90.3451 18.5836V42.7056C90.3451 42.7056 90.2479 49.5184 90.8963 51.0505H81.9478C81.9478 51.0505 82.6287 46.3564 82.6287 41.2387V20.8002C82.6287 20.8002 83.2772 9.16296 81.2021 1.20923Z" fill="black"/>
<path fill-rule="evenodd" clip-rule="evenodd" d="M47.2888 1.60059H57.1775C57.1775 1.60059 56.3345 17.8666 56.3345 22.9518V46.8782C56.3345 46.8782 61.1006 48.1821 67.131 48.1821C73.1615 48.1821 75.5932 46.2262 77.6033 42.9339C77.6033 42.9339 77.3764 47.9865 74.9771 50.8877H47.5482C47.5482 50.8877 48.5533 44.792 48.5533 37.5554V15.324C48.5857 15.324 48.8451 7.53329 47.2888 1.60059Z" fill="black"/>
<path fill-rule="evenodd" clip-rule="evenodd" d="M26.5388 0.00322556C26.5388 0.00322556 35.3251 0.133615 40.3505 2.38283V8.25033C40.3505 8.25033 36.5572 3.75191 26.8954 3.75191C17.2337 3.75191 8.0583 10.6951 8.0583 26.1462C8.0583 41.5973 16.6825 49.0947 26.9603 49.0947C37.2705 49.0947 41.388 41.7603 41.388 41.7603C41.388 41.7603 42.5552 48.8339 36.3951 51.0831C36.3951 51.0831 30.4294 52.1915 27.1872 52.1915C23.945 52.1915 0.114929 53.7887 0.114929 26.4396C0.114929 -0.876902 22.1618 0.00322556 26.5388 0.00322556Z" fill="black"/>
<path d="M196.754 51.4744C207.712 48.6058 215.85 38.3377 215.85 26.1463C215.85 11.8035 209.236 0.0358887 190.626 0.0358887C172.016 0.0358887 165.402 11.7709 165.402 26.1463C165.402 40.0979 171.303 51.5396 189.07 52.1915C196.981 54.5059 200.288 58.2872 204.438 60.1778C209.398 62.3619 214.002 61.9381 214.002 61.9381V59.6563C209.398 59.6563 207.712 56.527 204.438 53.8866C202.525 52.3545 199.283 51.67 196.754 51.4744ZM173.605 26.3745C173.605 13.8245 178.371 3.55639 190.788 3.55639C203.173 3.55639 207.939 13.8245 207.939 26.3745C207.939 38.9244 202.525 49.1274 190.788 49.1274C178.987 49.16 173.605 38.9244 173.605 26.3745Z" fill="black"/>
</g>
<defs>
<clipPath id="clip0_1_379">
<rect width="300" height="62" fill="white" transform="translate(0.114929)"/>
</clipPath>
</defs>
</svg>
