<svg width="354" height="53" viewBox="0 0 354 53" fill="none" xmlns="http://www.w3.org/2000/svg">
<g clip-path="url(#clip0_1_261)">
<path d="M130.723 19.7169H134.115V11.3962L140.9 0.428019H136.942L132.419 7.9923L128.084 0.617126L127.896 0.238912H123.938L130.723 11.2071V19.7169ZM30.8352 19.7169H44.9702V16.313H34.2276V11.2071H43.8394V7.8032H34.2276V3.45373H44.9702V0.0498047H30.8352V19.7169ZM0.114929 19.7169H3.50735V11.2071H12.5538V7.9923H3.50735V3.64284H13.4961V0.238912H0.114929V19.7169ZM94.9142 3.64284H100.568V19.5278H103.961V3.64284H109.615V0.238912H94.9142V3.64284ZM65.8902 13.6655V0.428019H62.4977V19.7169H65.8902L74.5597 6.47945V19.7169H77.9521V0.428019H74.5597L65.8902 13.6655ZM349.157 0.428019L344.634 7.9923L340.299 0.617126L340.111 0.238912H336.153L342.938 11.2071V19.5278H346.33V11.3962L353.115 0.428019H349.157ZM306.94 3.64284H312.594V19.5278H315.987V3.64284H321.641V0.238912H306.94V3.64284ZM286.963 12.5309C286.993 13.0767 286.905 13.6226 286.704 14.1309C286.504 14.6392 286.196 15.0979 285.802 15.4754C285.408 15.8528 284.937 16.1401 284.421 16.3173C283.906 16.4946 283.358 16.5576 282.816 16.5021C282.274 16.5576 281.727 16.4946 281.212 16.3173C280.696 16.1401 280.225 15.8528 279.831 15.4754C279.437 15.0979 279.129 14.6392 278.929 14.1309C278.728 13.6226 278.64 13.0767 278.67 12.5309V0.428019H275.278V12.5309C275.236 13.5269 275.404 14.5206 275.77 15.4472C276.137 16.3737 276.694 17.2123 277.405 17.9083C278.116 18.6042 278.966 19.1418 279.899 19.4861C280.831 19.8303 281.825 19.9734 282.816 19.9061C283.804 19.9558 284.79 19.8006 285.715 19.45C286.639 19.0995 287.482 18.5612 288.19 17.8689C288.897 17.1766 289.455 16.3452 289.827 15.4266C290.2 14.5081 290.38 13.5223 290.355 12.5309V0.428019H286.963V12.5309ZM192.54 9.50516C193.07 9.06922 193.497 8.52089 193.79 7.89962C194.084 7.27835 194.236 6.59957 194.237 5.91213C194.271 5.14978 194.141 4.38894 193.854 3.68208C193.568 2.97523 193.132 2.33919 192.576 1.81784C192.021 1.29649 191.359 0.902249 190.637 0.662305C189.915 0.42236 189.15 0.342427 188.394 0.428019H180.102V19.7169H188.583C189.381 19.7687 190.181 19.6555 190.934 19.3841C191.687 19.1128 192.377 18.6892 192.96 18.1396C193.543 17.59 194.007 16.926 194.324 16.189C194.641 15.4519 194.804 14.6574 194.802 13.8546C194.809 12.9992 194.607 12.1551 194.212 11.3967C193.818 10.6382 193.244 9.98866 192.54 9.50516ZM183.494 3.64284H188.394C190.09 3.64284 190.844 4.21016 190.844 5.72302C190.848 6.01372 190.791 6.30202 190.676 6.56897C190.562 6.83592 190.392 7.07549 190.178 7.27195C189.965 7.4684 189.712 7.6173 189.437 7.70886C189.162 7.80042 188.871 7.83257 188.583 7.8032H183.494V3.64284ZM188.583 16.313H183.494V11.2071H188.583C190.467 11.2071 191.41 11.9636 191.41 13.6655C191.413 14.0305 191.341 14.3923 191.198 14.7278C191.055 15.0634 190.843 15.3653 190.578 15.6143C190.312 15.8634 189.997 16.0541 189.653 16.1744C189.31 16.2947 188.945 16.3419 188.583 16.313ZM226.276 16.313H215.534V11.2071H225.145V7.8032H215.534V3.45373H226.276V0.0498047H212.141V19.3387H226.276V16.313ZM255.489 19.5278L259.258 19.7169L252.285 0.806233L252.096 0.428019H248.892L241.73 19.3387L241.542 19.7169H245.123L247.008 14.4219H253.415L255.489 19.5278ZM248.515 11.018L250.588 5.3448L252.662 11.018H248.515Z" fill="black"/>
<path d="M78.1406 39.7622H85.3023C86.0803 39.8669 86.7945 40.2496 87.3138 40.8402C87.8331 41.4308 88.1227 42.1895 88.1293 42.977C88.1424 43.6127 87.9464 44.235 87.5717 44.7477C87.197 45.2605 86.6644 45.6351 86.0562 45.8136C86.7751 45.9768 87.4142 46.388 87.8619 46.9755C88.3096 47.563 88.5377 48.2895 88.5063 49.0285C88.5063 49.6156 88.37 50.1947 88.1083 50.7199C87.8466 51.2451 87.4667 51.7019 86.9985 52.0542C86.0562 52.8106 85.1139 52.8106 83.0407 52.8106H77.9521V39.7622H78.1406ZM79.8368 41.2751V45.2463H82.6638C84.7369 45.2463 85.4908 45.2463 86.2447 44.3008C86.4537 43.9558 86.5826 43.568 86.6216 43.1661C86.6216 41.2751 84.7369 41.2751 84.1715 41.2751H79.8368ZM79.8368 46.7592V51.2977H83.7946C84.367 51.3657 84.9472 51.301 85.4908 51.1086C85.9572 51.0166 86.3718 50.7511 86.6514 50.3654C86.931 49.9796 87.055 49.5021 86.9985 49.0285C87.0346 48.5848 86.9252 48.1416 86.687 47.7661C86.4489 47.3906 86.095 47.1034 85.6793 46.9483C84.8167 46.7365 83.9246 46.6725 83.0407 46.7592H79.8368Z" fill="black"/>
<path d="M105.091 46.7592V52.8106H103.395V46.7592L98.6835 39.7622H100.757L104.149 45.2463L107.73 39.7622H109.803L105.091 46.7592Z" fill="black"/>
<path d="M137.508 47.3265V52.9997H135.812V39.7622H140.712C142.078 39.5682 143.47 39.8342 144.67 40.5186C145.103 40.89 145.447 41.3553 145.676 41.8794C145.904 42.4035 146.011 42.9727 145.989 43.5444C146.028 43.9793 145.98 44.4176 145.849 44.834C145.719 45.2504 145.507 45.6368 145.227 45.9708C144.946 46.3048 144.603 46.5798 144.216 46.78C143.83 46.9802 143.407 47.1017 142.973 47.1374L146.743 52.8106H144.67L141.089 47.1374H137.508V47.3265ZM137.508 45.8136H140.9C141.41 45.854 141.923 45.7896 142.408 45.6245C142.882 45.5187 143.307 45.2561 143.615 44.8788C143.922 44.5016 144.095 44.0317 144.104 43.5444C144.136 43.1919 144.084 42.8369 143.953 42.5083C143.822 42.1798 143.615 41.8868 143.35 41.6533C142.565 41.1584 141.63 40.9575 140.712 41.086H137.319V45.8136H137.508Z" fill="black"/>
<path d="M160.124 39.7622V52.9997H158.428V39.7622H160.124Z" fill="black"/>
<path d="M182.175 46.7593H175.013V52.8107H173.317V39.5732H175.013V45.2465H182.175V39.5732H183.871V52.8107H182.175V46.7593Z" fill="black"/>
<path d="M203.66 48.8395H198.571L197.064 52.8107H195.179L200.268 39.5732H202.152L206.864 52.8107H204.979L203.66 48.8395ZM203.095 47.3266L201.21 41.8425L199.137 47.3266H203.095Z" fill="black"/>
<path d="M228.538 39.7622V52.9997H227.03L219.868 42.2206L220.057 52.9997H218.361V39.7622H220.057L227.219 50.3522V39.7622H228.538Z" fill="black"/>
<path d="M252.096 39.7622V52.9997H250.588L243.427 42.2206L243.615 52.9997H241.919V39.7622H243.615L250.777 50.3522V39.7622H252.096Z" fill="black"/>
<path d="M271.697 48.8395H266.608L265.101 52.8107H263.216L268.304 39.5732H270.189L274.901 52.8107H273.016L271.697 48.8395ZM271.131 47.3266L269.247 41.8425L267.174 47.3266H271.131Z" fill="black"/>
</g>
<defs>
<clipPath id="clip0_1_261">
<rect width="353" height="52.95" fill="white" transform="translate(0.114929 0.0498047)"/>
</clipPath>
</defs>
</svg>
